<svg width="15" height="16" viewBox="0 0 15 16" fill="none" xmlns="http://www.w3.org/2000/svg">
<path fill-rule="evenodd" clip-rule="evenodd" d="M1.54455 15.5682L12.4515 3.02112L12.8509 11.8036C12.872 12.2631 13.2618 12.619 13.7216 12.5978C14.1814 12.577 14.5372 12.1871 14.5164 11.7274L14.0595 1.69738C14.029 1.25305 13.8217 0.83923 13.484 0.548703C13.1463 0.258176 12.7062 0.114865 12.2623 0.150998L2.28607 1.09314C1.8277 1.13635 1.49121 1.54309 1.53436 2.0011C1.57763 2.45959 1.98419 2.79626 2.44256 2.7528L11.2125 1.90588L0.286497 14.4747C-0.0155054 14.8221 0.0212988 15.3485 0.368711 15.6505C0.716123 15.9525 1.24255 15.9156 1.54455 15.5682Z" fill="#326DF9"/>
</svg>
